<svg width="223" height="40" viewBox="0 0 223 40" fill="none" xmlns="http://www.w3.org/2000/svg">
<g clip-path="url(#clip0_1323_11251)">
<path d="M53.2026 20.006H39.0418C38.9095 23.0516 40.1005 25.3027 43.6738 25.3027C46.1884 25.3027 48.7029 24.5082 50.0263 23.9785L50.688 28.3483C48.7029 29.2752 45.659 30.0697 42.0857 30.0697C35.9979 30.0697 32.4246 26.6268 32.4246 20.8005C32.4246 17.2252 33.6157 13.2527 35.7332 10.472C37.9831 7.16155 41.5563 5.17529 45.9237 5.17529C51.2174 5.17529 54.2613 8.22088 54.2613 13.65C54.2613 14.9741 53.8643 17.8873 53.2026 20.006ZM45.1296 9.28022C43.1444 9.28022 41.424 10.6044 40.2329 12.9879C39.7035 14.0472 39.7035 14.3121 39.3065 15.5038H47.6441C47.7765 14.8417 48.0412 13.65 48.0412 12.8555C48.1735 10.472 47.1148 9.28022 45.1296 9.28022Z" fill="#EC2029"/>
<path d="M9.26405 36.6925H2.91156L0 5.83936H6.88187L8.07296 26.7612L17.734 5.83936H24.7483L9.26405 36.6925Z" fill="#EC2029"/>
<path d="M68.2897 10.3389H64.5841L61.9372 22.9185C61.8049 23.3157 61.4079 25.4344 63.6577 25.5668C64.3194 25.5668 65.2458 25.4344 65.6429 25.302C65.6429 25.302 64.5841 30.2014 59.6874 30.2014C55.9818 30.2014 54.2613 27.4207 55.0554 23.1833L59.5551 2.12902C59.5551 2.12902 62.0696 -0.65174 66.8339 0.142762C66.0399 4.11527 65.6429 5.83669 65.6429 5.83669H69.3485L68.2897 10.3389Z" fill="#EC2029"/>
<path d="M114.346 10.337H110.64L107.993 22.9166C107.861 23.3139 107.464 25.4325 109.714 25.565C110.375 25.565 111.302 25.4325 111.699 25.3001C111.699 25.3001 110.64 30.1996 105.743 30.1996C102.038 30.1996 100.317 27.4188 101.111 23.1815L105.479 2.39199C105.479 2.39199 107.993 -0.38877 112.758 0.405732C111.964 4.37824 111.567 6.09966 111.567 6.09966H115.272L114.346 10.337Z" fill="#EC2029"/>
<path d="M99.258 20.006H85.0972C84.9649 23.0516 86.156 25.3027 89.7292 25.3027C92.2438 25.3027 94.7583 24.5082 96.0817 23.9785L96.7434 28.3483C94.7583 29.2752 91.7144 30.0697 88.1411 30.0697C82.0533 30.0697 78.6124 26.6268 78.6124 20.8005C78.6124 17.2252 79.8035 13.2527 81.7886 10.472C84.1708 7.16155 87.6117 5.17529 91.9791 5.17529C97.2728 5.17529 100.317 8.22088 100.317 13.65C100.317 14.9741 99.9197 17.8873 99.258 20.006ZM91.185 9.28022C89.1999 9.28022 87.4794 10.6044 86.2883 12.9879C85.7589 14.0472 85.7589 14.3121 85.3619 15.5038H93.6995C93.8319 14.8417 94.0966 13.65 94.0966 12.8555C94.2289 10.472 93.0378 9.28022 91.185 9.28022Z" fill="#EC2029"/>
<path d="M164.238 10.3387C162.65 9.67657 160.797 9.67657 159.606 10.2062L155.503 29.804H148.622L153.518 7.16065C156.43 5.57165 161.724 4.64473 165.826 5.43923L164.238 10.3387Z" fill="#EC2029"/>
<path d="M130.887 36.6925L131.019 29.8068H121.623L117.785 36.6925H111.035L129.563 5.83936H136.578L137.769 36.6925H130.887ZM131.152 12.725L124.005 25.4371H131.019L131.152 12.725Z" fill="#EC2029"/>
<path d="M61.8035 40.0001C55.7157 40.0001 52.2748 36.0276 52.8041 31.7902C55.848 35.2331 61.5388 35.3655 64.8474 32.3199C66.0385 31.2606 67.0972 29.5391 67.8913 25.4342C69.3471 18.4161 71.9939 5.70407 71.9939 5.70407H78.8758L74.1114 28.215C72.6557 35.4979 68.0236 40.0001 61.8035 40.0001Z" fill="#EC2029"/>
<path d="M27.7914 29.8068H21.0418L26.0709 5.83936H32.8204L27.7914 29.8068Z" fill="#EC2029"/>
<path d="M145.577 29.8068H138.695L143.724 5.83936H150.606L145.577 29.8068Z" fill="#EC2029"/>
<path d="M161.194 30.07C160.003 30.07 159.209 29.2755 159.209 28.2161C159.209 26.7596 160.532 25.4354 161.988 25.4354C163.179 25.4354 163.973 26.2299 163.973 27.2892C164.106 28.7458 162.65 30.07 161.194 30.07Z" fill="#EC2029"/>
<path d="M178.399 15.5007C178.002 15.2359 177.34 14.8386 176.546 14.8386C175.223 14.8386 174.032 15.6331 173.105 17.2221C172.179 18.6787 171.65 21.0622 171.65 22.7836C171.65 25.0347 172.576 26.0941 174.032 26.0941C174.958 26.0941 175.885 25.8292 176.414 25.432L176.811 28.61C176.017 29.4045 174.429 29.9342 172.311 29.9342C168.87 29.9342 166.356 27.2858 166.356 23.0485C166.356 20.4001 167.415 17.2221 168.87 15.1035C170.591 12.5875 173.238 11.3958 175.752 11.3958C177.737 11.3958 179.458 12.1903 179.987 12.72L178.399 15.5007Z" fill="#EC2029"/>
<path d="M191.766 26.0979C190.178 28.4814 187.531 30.0704 184.222 30.0704C179.987 30.0704 177.87 27.4221 177.87 23.4496C177.87 20.8012 178.796 17.6232 180.252 15.5045C181.972 12.9886 184.487 11.532 187.795 11.532C192.03 11.532 194.28 14.1804 194.28 18.0205C194.28 20.6688 193.221 23.9792 191.766 26.0979ZM187.398 14.71C186.075 14.71 185.016 15.7694 184.354 17.3584C183.56 19.0798 182.899 22.1254 182.899 23.9792C182.899 25.5682 183.296 26.4951 184.751 26.4951C186.207 26.4951 187.134 25.5682 187.795 23.9792C188.589 22.2578 189.251 19.2122 189.251 17.3584C189.251 15.7694 188.722 14.71 187.398 14.71Z" fill="#EC2029"/>
<path d="M221.543 17.3584L219.029 29.8056H213.867L216.514 17.0935C216.514 16.8287 216.646 16.6963 216.646 16.4314C216.646 15.3721 215.985 14.71 214.529 14.71C213.603 14.71 212.676 15.1073 212.014 15.6369L209.103 29.8056H203.941L206.588 17.0935C206.588 16.8287 206.721 16.6963 206.721 16.4314C206.721 15.3721 205.927 14.71 204.338 14.71C203.544 14.71 202.75 14.8424 202.089 15.1073L199.045 29.8056H193.883L197.457 12.8562C199.574 11.9293 202.089 11.532 205 11.532C207.382 11.532 209.368 12.3265 210.162 13.3859C211.353 12.4589 213.603 11.532 216.646 11.532C220.352 11.532 222.073 13.3859 222.073 16.0342C221.676 16.5639 221.675 16.9611 221.543 17.3584Z" fill="#EC2029"/>
</g>
<defs>
<clipPath id="clip0_1323_11251">
<rect width="222.073" height="40.0001" fill="white"/>
</clipPath>
</defs>
</svg>
